<svg width="512" height="512" viewBox="0 0 512 512" fill="none" xmlns="http://www.w3.org/2000/svg" role="img" aria-labelledby="title desc">
  <title id="title">GoalSync Logo</title>
  <desc id="desc">GoalSync logo with connected goal nodes and GS initials.</desc>
  <rect width="512" height="512" rx="96" fill="#0F766E"/>
  <path d="M150 166L362 346" stroke="#D9F99D" stroke-width="28" stroke-linecap="round"/>
  <circle cx="150" cy="166" r="50" fill="#D9F99D" stroke="#FFFFFF" stroke-width="22"/>
  <circle cx="362" cy="346" r="50" fill="#D9F99D" stroke="#FFFFFF" stroke-width="22"/>
  <rect x="132" y="132" width="248" height="248" rx="56" fill="#FFFFFF"/>
  <path d="M215.2 292.8C205.8 292.8 197.3 291.2 189.7 288C182.2 284.7 176.2 280.2 171.8 274.4C167.5 268.5 165.3 261.8 165.3 254.1H196.7C197.2 258.4 199.1 261.8 202.4 264.3C205.8 266.8 210.1 268 215.4 268C220.3 268 224.1 267 226.8 265C229.6 262.9 231 260.3 231 257.1C231 253.3 229 250.5 225.1 248.7C221.2 246.8 214.8 244.8 205.9 242.6C196.3 240.3 188.3 237.9 181.9 235.4C175.5 232.8 170 228.8 165.5 223.4C161.1 218 158.9 210.7 158.9 201.6C158.9 193.9 160.9 186.9 165 180.6C169.2 174.2 175.2 169.2 183.2 165.5C191.3 161.8 200.9 160 212 160C228.5 160 241.5 164.1 251 172.3C260.6 180.5 266.1 191.4 267.6 205H238.2C237.7 200.7 235.9 197.4 232.8 194.9C229.8 192.4 225.8 191.2 220.8 191.2C216.3 191.2 212.8 192.1 210.3 193.9C207.9 195.6 206.7 198.1 206.7 201.2C206.7 205 208.7 207.9 212.7 209.8C216.8 211.7 223 213.6 231.5 215.6C241.4 218.2 249.5 220.8 255.8 223.4C262.2 225.9 267.7 230 272.3 235.6C277 241.1 279.4 248.5 279.5 257.8C279.5 265.6 277.3 272.6 273 278.7C268.7 284.7 262.6 289.4 254.6 292.8C246.7 296.1 237.2 292.8 215.2 292.8Z" fill="#0B3F3B"/>
  <path d="M348.8 211.8C344.4 204.8 338.3 199.5 330.5 196C322.8 192.4 313.7 190.6 303.3 190.6C285.2 190.6 270.7 196.5 259.8 208.4C248.9 220.2 243.5 236 243.5 255.8C243.5 276.9 249.2 293.4 260.7 305.3C272.2 317.1 288 323 308.1 323C321.9 323 333.5 319.5 343 312.5C352.6 305.5 359.6 295.4 364 282.2H295.4V252.4H401.7V290C397.5 304.1 390.4 317.2 380.5 329.3C370.7 341.4 358.1 351.2 342.8 358.7C327.5 366.2 310.2 370 290.9 370C268.1 370 247.7 365 229.8 355.1C212 345.1 198.1 331.3 188.1 313.7C178.2 296 173.2 276.9 173.2 256.2C173.2 235.5 178.2 216.4 188.1 198.9C198.1 181.2 212 167.4 229.7 157.5C247.5 147.5 267.8 142.5 290.6 142.5C318.2 142.5 341.5 149.2 360.5 162.6C379.6 175.9 392.2 194.4 398.4 218H348.8Z" fill="#0B3F3B" fill-opacity="0.12"/>
  <path d="M338.8 220.6C334.7 214.2 329 209.3 321.7 206C314.5 202.7 306 201.1 296.3 201.1C279.4 201.1 265.9 206.6 255.7 217.7C245.5 228.7 240.4 243.4 240.4 261.9C240.4 281.6 245.8 297 256.5 308.1C267.2 319.1 282 324.6 300.7 324.6C313.6 324.6 324.4 321.3 333.3 314.8C342.2 308.2 348.7 298.8 352.8 286.5H288.8V258.7H388V293.8C384.1 307 377.5 319.2 368.3 330.5C359.1 341.8 347.3 350.9 333 357.9C318.7 364.9 302.5 368.4 284.5 368.4C263.2 368.4 244.2 363.8 227.5 354.5C210.8 345.2 197.8 332.3 188.5 315.8C179.2 299.3 174.5 281.5 174.5 262.2C174.5 242.9 179.2 225.1 188.5 208.8C197.8 192.3 210.8 179.4 227.4 170.1C244 160.8 262.9 156.1 284.2 156.1C310 156.1 331.8 162.4 349.6 174.9C367.4 187.4 379.2 204.7 385 226.7H338.8Z" fill="#0B3F3B"/>
  <text x="256" y="286" text-anchor="middle" font-family="Inter, Segoe UI, Arial, sans-serif" font-size="112" font-weight="900" fill="#0B3F3B">GS</text>
</svg>
